<svg width="96" height="30" viewBox="0 0 96 30" fill="none" xmlns="http://www.w3.org/2000/svg">
<path d="M21.5879 19.3828L22.8535 16.9922V30H21.5879V19.3828ZM24.1191 14.5312L25.3848 12.1406V30H24.1191V14.5312ZM26.6504 9.75L27.916 7.3418V30H26.6504V9.75ZM18.1602 18.7852L17.4395 17.4668L26.1582 0.890625H27.582L18.1602 18.7852ZM16.7012 16.0254L15.9629 14.6895L23.2754 0.890625H24.7168L16.7012 16.0254ZM8.22852 17.1328L9.49414 19.5234V30H8.22852V17.1328ZM5.69727 12.3164L6.96289 14.707V30H5.69727V12.3164ZM3.16602 7.5L4.43164 9.9082V30H3.16602V7.5ZM13.3965 22.4062H11.9727L1.90039 3.29883V30H0.634766V0.890625H2.05859L13.3965 22.4062ZM16.2617 22.4062H14.8203L3.5 0.890625H4.94141L16.2617 22.4062ZM29.1816 3.29883L19.1094 22.4062H17.668L6.36523 0.890625H7.78906L18.4062 21.0703L29.0059 0.890625H30.4473V30H29.1816V3.29883ZM32.8027 0.890625H34.1738L45.002 28.2949L55.8301 0.890625H57.1836L45.6875 30H44.3164L32.8027 0.890625ZM45.8809 23.6719L45.1602 25.2891L35.5273 0.890625H36.8809L45.8809 23.6719ZM47.2344 20.209L46.5664 21.9492L38.252 0.890625H39.623L47.2344 20.209ZM48.5703 16.6934L47.9023 18.4688L40.9766 0.890625H42.3301L48.5703 16.6934ZM63.9863 0.890625H65.3574L53.8438 30H52.4902L63.9863 0.890625ZM61.2793 0.890625H62.6328L51.1191 30H49.7656L61.2793 0.890625ZM58.5371 0.890625H59.9082L48.3945 30H47.041L58.5371 0.890625ZM77.5215 16.2188H84.8691C86.0762 16.2188 87.0957 15.8145 87.9277 15.0059C88.7715 14.1855 89.1934 13.0312 89.1934 11.543C89.1934 10.4297 88.7539 9.43359 87.875 8.55469C86.9961 7.66406 85.9941 7.21875 84.8691 7.21875H74.0059V30H72.7402V5.95312H84.8691C86.3457 5.95312 87.6465 6.52148 88.7715 7.6582C89.8965 8.79492 90.459 10.0898 90.459 11.543C90.459 13.3359 89.9141 14.7773 88.8242 15.8672C87.7344 16.9453 86.416 17.4844 84.8691 17.4844H77.5215V16.2188ZM77.5215 18.75H84.8691C86.0879 18.75 87.2129 18.457 88.2441 17.8711C89.2871 17.2734 90.125 16.418 90.7578 15.3047C91.4023 14.1914 91.7246 12.9375 91.7246 11.543C91.7246 9.73828 91.0332 8.14453 89.6504 6.76172C88.2793 5.37891 86.6855 4.6875 84.8691 4.6875H71.4746V30H70.209V3.42188H84.8691C86.2871 3.42188 87.623 3.79687 88.877 4.54688C90.1309 5.29688 91.127 6.29883 91.8652 7.55273C92.6152 8.80664 92.9902 10.1367 92.9902 11.543C92.9902 13.1367 92.6152 14.5898 91.8652 15.9023C91.1152 17.2031 90.1191 18.2168 88.877 18.9434C87.6465 19.6582 86.3105 20.0156 84.8691 20.0156H77.5215V18.75ZM77.5215 21.2812H84.8691C86.123 21.2812 87.3242 21.0352 88.4727 20.543C89.6211 20.0391 90.6172 19.3652 91.4609 18.5215C92.3164 17.666 92.9961 16.6348 93.5 15.4277C94.0039 14.209 94.2559 12.9141 94.2559 11.543C94.2559 9.90234 93.8281 8.36133 92.9727 6.91992C92.1172 5.4668 90.9629 4.3125 89.5098 3.45703C88.0684 2.58984 86.5215 2.15625 84.8691 2.15625H68.9434V30H67.6777V0.890625H84.8691C86.7441 0.890625 88.502 1.38281 90.1426 2.36719C91.7832 3.33984 93.0898 4.64648 94.0625 6.28711C95.0352 7.92773 95.5215 9.67969 95.5215 11.543C95.5215 13.207 95.2344 14.7422 94.6602 16.1484C94.0859 17.543 93.3125 18.7031 92.3398 19.6289C91.3672 20.5547 90.2363 21.2754 88.9473 21.791C87.6582 22.2949 86.2988 22.5469 84.8691 22.5469H77.5215V21.2812ZM76.5371 30H75.2715V8.48438H84.8691C85.7012 8.48438 86.416 8.78906 87.0137 9.39844C87.623 10.0078 87.9277 10.7227 87.9277 11.543C87.9277 13.8164 86.9082 14.9531 84.8691 14.9531H77.5215V13.6875H84.8691C85.4316 13.6875 85.8711 13.5293 86.1875 13.2129C86.5039 12.8965 86.6621 12.3398 86.6621 11.543C86.6621 11.0273 86.4863 10.5996 86.1348 10.2598C85.7949 9.91992 85.373 9.75 84.8691 9.75H76.5371V30Z" fill="white"/>
</svg>
